<svg width="54" height="54" viewBox="0 0 54 54" fill="none" xmlns="http://www.w3.org/2000/svg">
<path d="M40.5985 12.4963H40.6241M13.7737 1H39.3211C46.3759 1 52.0948 6.71898 52.0948 13.7737V39.3211C52.0948 46.3759 46.3759 52.0948 39.3211 52.0948H13.7737C6.71898 52.0948 1 46.3759 1 39.3211V13.7737C1 6.71898 6.71898 1 13.7737 1ZM36.7664 24.9379C37.0817 27.0641 36.7185 29.2356 35.7285 31.1434C34.7386 33.0513 33.1722 34.5985 31.2523 35.5648C29.3324 36.5312 27.1566 36.8675 25.0345 36.5261C22.9123 36.1846 20.9519 35.1827 19.4321 33.6628C17.9122 32.1429 16.9102 30.1825 16.5688 28.0604C16.2273 25.9382 16.5637 23.7625 17.53 21.8425C18.4964 19.9226 20.0435 18.3563 21.9514 17.3663C23.8593 16.3763 26.0307 16.0132 28.1569 16.3285C30.3257 16.6501 32.3335 17.6607 33.8839 19.211C35.4342 20.7613 36.4448 22.7692 36.7664 24.9379Z" stroke="white" stroke-width="2" stroke-linecap="round" stroke-linejoin="round"/>
</svg>
